G75*
%MOIN*%
%OFA0B0*%
%FSLAX25Y25*%
%IPPOS*%
%LPD*%
%AMOC8*
5,1,8,0,0,1.08239X$1,22.5*
%
%ADD10C,0.00000*%
%ADD11C,0.00600*%
%ADD12C,0.00500*%
%ADD13C,0.00400*%
%ADD14R,0.01673X0.01280*%
%ADD15R,0.01378X0.01378*%
%ADD16C,0.00200*%
%ADD17C,0.00300*%
D10*
X0001000Y0001000D02*
X0001000Y0197850D01*
X0197850Y0197850D01*
X0197850Y0001000D01*
X0001000Y0001000D01*
D11*
X0009228Y0074618D02*
X0009228Y0105492D01*
X0037102Y0105492D02*
X0037102Y0074370D01*
X0039937Y0074579D02*
X0039937Y0105453D01*
X0067811Y0105453D02*
X0067811Y0074331D01*
X0071984Y0074224D02*
X0071984Y0105098D01*
X0099858Y0105098D02*
X0099858Y0073976D01*
X0102929Y0074224D02*
X0102929Y0105098D01*
X0099894Y0121315D02*
X0122894Y0121315D01*
X0122894Y0191315D01*
X0115394Y0191315D01*
X0115392Y0191189D01*
X0115386Y0191064D01*
X0115376Y0190939D01*
X0115362Y0190814D01*
X0115345Y0190689D01*
X0115323Y0190565D01*
X0115298Y0190442D01*
X0115268Y0190320D01*
X0115235Y0190199D01*
X0115198Y0190079D01*
X0115158Y0189960D01*
X0115113Y0189843D01*
X0115065Y0189726D01*
X0115013Y0189612D01*
X0114958Y0189499D01*
X0114899Y0189388D01*
X0114837Y0189279D01*
X0114771Y0189172D01*
X0114702Y0189067D01*
X0114630Y0188964D01*
X0114555Y0188863D01*
X0114476Y0188765D01*
X0114394Y0188670D01*
X0114310Y0188577D01*
X0114222Y0188487D01*
X0114132Y0188399D01*
X0114039Y0188315D01*
X0113944Y0188233D01*
X0113846Y0188154D01*
X0113745Y0188079D01*
X0113642Y0188007D01*
X0113537Y0187938D01*
X0113430Y0187872D01*
X0113321Y0187810D01*
X0113210Y0187751D01*
X0113097Y0187696D01*
X0112983Y0187644D01*
X0112866Y0187596D01*
X0112749Y0187551D01*
X0112630Y0187511D01*
X0112510Y0187474D01*
X0112389Y0187441D01*
X0112267Y0187411D01*
X0112144Y0187386D01*
X0112020Y0187364D01*
X0111895Y0187347D01*
X0111770Y0187333D01*
X0111645Y0187323D01*
X0111520Y0187317D01*
X0111394Y0187315D01*
X0111268Y0187317D01*
X0111143Y0187323D01*
X0111018Y0187333D01*
X0110893Y0187347D01*
X0110768Y0187364D01*
X0110644Y0187386D01*
X0110521Y0187411D01*
X0110399Y0187441D01*
X0110278Y0187474D01*
X0110158Y0187511D01*
X0110039Y0187551D01*
X0109922Y0187596D01*
X0109805Y0187644D01*
X0109691Y0187696D01*
X0109578Y0187751D01*
X0109467Y0187810D01*
X0109358Y0187872D01*
X0109251Y0187938D01*
X0109146Y0188007D01*
X0109043Y0188079D01*
X0108942Y0188154D01*
X0108844Y0188233D01*
X0108749Y0188315D01*
X0108656Y0188399D01*
X0108566Y0188487D01*
X0108478Y0188577D01*
X0108394Y0188670D01*
X0108312Y0188765D01*
X0108233Y0188863D01*
X0108158Y0188964D01*
X0108086Y0189067D01*
X0108017Y0189172D01*
X0107951Y0189279D01*
X0107889Y0189388D01*
X0107830Y0189499D01*
X0107775Y0189612D01*
X0107723Y0189726D01*
X0107675Y0189843D01*
X0107630Y0189960D01*
X0107590Y0190079D01*
X0107553Y0190199D01*
X0107520Y0190320D01*
X0107490Y0190442D01*
X0107465Y0190565D01*
X0107443Y0190689D01*
X0107426Y0190814D01*
X0107412Y0190939D01*
X0107402Y0191064D01*
X0107396Y0191189D01*
X0107394Y0191315D01*
X0099894Y0191315D01*
X0099894Y0121315D01*
X0130803Y0105098D02*
X0130803Y0073976D01*
X0133756Y0074421D02*
X0133756Y0105295D01*
X0161630Y0105295D02*
X0161630Y0074173D01*
X0164543Y0073713D02*
X0164543Y0104587D01*
X0192417Y0104587D02*
X0192417Y0073465D01*
X0193343Y0134386D02*
X0188343Y0134386D01*
X0185843Y0136886D01*
X0185843Y0141886D01*
X0188343Y0144386D01*
X0185843Y0146886D01*
X0185843Y0151886D01*
X0188343Y0154386D01*
X0185843Y0156886D01*
X0185843Y0161886D01*
X0188343Y0164386D01*
X0193343Y0164386D01*
X0195843Y0161886D01*
X0195843Y0156886D01*
X0193343Y0154386D01*
X0195843Y0151886D01*
X0195843Y0146886D01*
X0193343Y0144386D01*
X0195843Y0141886D01*
X0195843Y0136886D01*
X0193343Y0134386D01*
X0193343Y0144386D02*
X0188343Y0144386D01*
X0188343Y0154386D02*
X0193343Y0154386D01*
X0070843Y0187201D02*
X0068343Y0184701D01*
X0063343Y0184701D01*
X0060843Y0187201D01*
X0058343Y0184701D01*
X0053343Y0184701D01*
X0050843Y0187201D01*
X0048343Y0184701D01*
X0043343Y0184701D01*
X0040843Y0187201D01*
X0040843Y0192201D01*
X0043343Y0194701D01*
X0048343Y0194701D01*
X0050843Y0192201D01*
X0053343Y0194701D01*
X0058343Y0194701D01*
X0060843Y0192201D01*
X0063343Y0194701D01*
X0068343Y0194701D01*
X0070843Y0192201D01*
X0070843Y0187201D01*
X0060843Y0187201D02*
X0060843Y0192201D01*
X0050843Y0192201D02*
X0050843Y0187201D01*
D12*
X0051502Y0197151D02*
X0051502Y0201655D01*
X0050000Y0200153D01*
X0048399Y0199403D02*
X0048399Y0200904D01*
X0047648Y0201655D01*
X0045396Y0201655D01*
X0045396Y0197151D01*
X0045396Y0198652D02*
X0047648Y0198652D01*
X0048399Y0199403D01*
X0050000Y0197151D02*
X0053003Y0197151D01*
X0043795Y0201655D02*
X0042294Y0201655D01*
X0043044Y0201655D02*
X0043044Y0197901D01*
X0042294Y0197151D01*
X0041543Y0197151D01*
X0040793Y0197901D01*
X0036433Y0161827D02*
X0006906Y0161827D01*
X0006906Y0142142D01*
X0036433Y0142142D01*
X0036433Y0122457D01*
X0006906Y0122457D01*
X0006906Y0142142D01*
X0036433Y0142142D02*
X0036433Y0161827D01*
X0036945Y0105803D02*
X0025134Y0105803D01*
X0025134Y0103835D01*
X0021197Y0103835D01*
X0021197Y0105803D01*
X0009386Y0105803D01*
X0021197Y0076276D02*
X0021197Y0074307D01*
X0009386Y0074307D01*
X0020104Y0074372D02*
X0020104Y0070619D01*
X0020854Y0069868D01*
X0022355Y0069868D01*
X0023106Y0070619D01*
X0023106Y0074372D01*
X0024707Y0073621D02*
X0025458Y0074372D01*
X0026959Y0074372D01*
X0027710Y0073621D01*
X0029311Y0073621D02*
X0030062Y0074372D01*
X0031563Y0074372D01*
X0032314Y0073621D01*
X0032314Y0072871D01*
X0031563Y0072120D01*
X0032314Y0071369D01*
X0032314Y0070619D01*
X0031563Y0069868D01*
X0030062Y0069868D01*
X0029311Y0070619D01*
X0027710Y0070619D02*
X0027710Y0071369D01*
X0026959Y0072120D01*
X0025458Y0072120D01*
X0024707Y0072871D01*
X0024707Y0073621D01*
X0025134Y0074307D02*
X0036945Y0074307D01*
X0040094Y0074268D02*
X0051906Y0074268D01*
X0051906Y0076236D01*
X0055843Y0076236D01*
X0055843Y0074268D01*
X0067654Y0074268D01*
X0063023Y0074333D02*
X0061521Y0073582D01*
X0060020Y0072081D01*
X0062272Y0072081D01*
X0063023Y0071330D01*
X0063023Y0070579D01*
X0062272Y0069829D01*
X0060771Y0069829D01*
X0060020Y0070579D01*
X0060020Y0072081D01*
X0058419Y0071330D02*
X0057668Y0072081D01*
X0056167Y0072081D01*
X0055416Y0072831D01*
X0055416Y0073582D01*
X0056167Y0074333D01*
X0057668Y0074333D01*
X0058419Y0073582D01*
X0056917Y0075083D02*
X0056917Y0069078D01*
X0056167Y0069829D02*
X0055416Y0070579D01*
X0056167Y0069829D02*
X0057668Y0069829D01*
X0058419Y0070579D01*
X0058419Y0071330D01*
X0053815Y0070579D02*
X0053815Y0074333D01*
X0050812Y0074333D02*
X0050812Y0070579D01*
X0051563Y0069829D01*
X0053064Y0069829D01*
X0053815Y0070579D01*
X0072142Y0073913D02*
X0083953Y0073913D01*
X0083953Y0075882D01*
X0087890Y0075882D01*
X0087890Y0073913D01*
X0099701Y0073913D01*
X0103087Y0073913D02*
X0114898Y0073913D01*
X0114898Y0075882D01*
X0118835Y0075882D01*
X0118835Y0073913D01*
X0130646Y0073913D01*
X0133913Y0074110D02*
X0145724Y0074110D01*
X0145724Y0076079D01*
X0149661Y0076079D01*
X0149661Y0074110D01*
X0161472Y0074110D01*
X0164701Y0073402D02*
X0176512Y0073402D01*
X0176512Y0075370D01*
X0180449Y0075370D01*
X0180449Y0073402D01*
X0192260Y0073402D01*
X0187629Y0068963D02*
X0184626Y0068963D01*
X0186128Y0068963D02*
X0186128Y0073466D01*
X0184626Y0071965D01*
X0183025Y0072716D02*
X0182274Y0073466D01*
X0180773Y0073466D01*
X0180022Y0072716D01*
X0180022Y0071965D01*
X0180773Y0071215D01*
X0182274Y0071215D01*
X0183025Y0070464D01*
X0183025Y0069713D01*
X0182274Y0068963D01*
X0180773Y0068963D01*
X0180022Y0069713D01*
X0178421Y0069713D02*
X0177670Y0068963D01*
X0176169Y0068963D01*
X0175419Y0069713D01*
X0175419Y0073466D01*
X0178421Y0073466D02*
X0178421Y0069713D01*
X0181524Y0068212D02*
X0181524Y0074217D01*
X0156842Y0074175D02*
X0153839Y0074175D01*
X0153839Y0071923D01*
X0155340Y0072674D01*
X0156091Y0072674D01*
X0156842Y0071923D01*
X0156842Y0070422D01*
X0156091Y0069671D01*
X0154590Y0069671D01*
X0153839Y0070422D01*
X0152238Y0070422D02*
X0152238Y0071173D01*
X0151487Y0071923D01*
X0149986Y0071923D01*
X0149235Y0072674D01*
X0149235Y0073424D01*
X0149986Y0074175D01*
X0151487Y0074175D01*
X0152238Y0073424D01*
X0150736Y0074926D02*
X0150736Y0068921D01*
X0149986Y0069671D02*
X0151487Y0069671D01*
X0152238Y0070422D01*
X0149986Y0069671D02*
X0149235Y0070422D01*
X0147634Y0070422D02*
X0147634Y0074175D01*
X0144631Y0074175D02*
X0144631Y0070422D01*
X0145382Y0069671D01*
X0146883Y0069671D01*
X0147634Y0070422D01*
X0126015Y0071726D02*
X0123012Y0071726D01*
X0125264Y0073978D01*
X0125264Y0069474D01*
X0121411Y0070225D02*
X0121411Y0070976D01*
X0120660Y0071726D01*
X0119159Y0071726D01*
X0118408Y0072477D01*
X0118408Y0073228D01*
X0119159Y0073978D01*
X0120660Y0073978D01*
X0121411Y0073228D01*
X0119910Y0074729D02*
X0119910Y0068724D01*
X0120660Y0069474D02*
X0121411Y0070225D01*
X0120660Y0069474D02*
X0119159Y0069474D01*
X0118408Y0070225D01*
X0116807Y0070225D02*
X0116056Y0069474D01*
X0114555Y0069474D01*
X0113804Y0070225D01*
X0113804Y0073978D01*
X0116807Y0073978D02*
X0116807Y0070225D01*
X0095070Y0069474D02*
X0092067Y0069474D01*
X0095070Y0072477D01*
X0095070Y0073228D01*
X0094319Y0073978D01*
X0092818Y0073978D01*
X0092067Y0073228D01*
X0090466Y0073228D02*
X0089715Y0073978D01*
X0088214Y0073978D01*
X0087463Y0073228D01*
X0087463Y0072477D01*
X0088214Y0071726D01*
X0089715Y0071726D01*
X0090466Y0070976D01*
X0090466Y0070225D01*
X0089715Y0069474D01*
X0088214Y0069474D01*
X0087463Y0070225D01*
X0085862Y0070225D02*
X0085111Y0069474D01*
X0083610Y0069474D01*
X0082859Y0070225D01*
X0082859Y0073978D01*
X0085862Y0073978D02*
X0085862Y0070225D01*
X0088965Y0068724D02*
X0088965Y0074729D01*
X0087890Y0103441D02*
X0083953Y0103441D01*
X0083953Y0105409D01*
X0072142Y0105409D01*
X0067654Y0105764D02*
X0055843Y0105764D01*
X0055843Y0103795D01*
X0051906Y0103795D01*
X0051906Y0105764D01*
X0040094Y0105764D01*
X0025134Y0076276D02*
X0021197Y0076276D01*
X0025134Y0076276D02*
X0025134Y0074307D01*
X0026209Y0075123D02*
X0026209Y0069117D01*
X0026959Y0069868D02*
X0025458Y0069868D01*
X0024707Y0070619D01*
X0026959Y0069868D02*
X0027710Y0070619D01*
X0030813Y0072120D02*
X0031563Y0072120D01*
X0087890Y0103441D02*
X0087890Y0105409D01*
X0099701Y0105409D01*
X0103087Y0105409D02*
X0114898Y0105409D01*
X0114898Y0103441D01*
X0118835Y0103441D01*
X0118835Y0105409D01*
X0130646Y0105409D01*
X0133913Y0105606D02*
X0145724Y0105606D01*
X0145724Y0103638D01*
X0149661Y0103638D01*
X0149661Y0105606D01*
X0161472Y0105606D01*
X0164701Y0104898D02*
X0176512Y0104898D01*
X0176512Y0102929D01*
X0180449Y0102929D01*
X0180449Y0104898D01*
X0192260Y0104898D01*
X0202042Y0151124D02*
X0202793Y0151875D01*
X0202793Y0152625D01*
X0202042Y0153376D01*
X0198289Y0153376D01*
X0198289Y0152625D02*
X0198289Y0154127D01*
X0198289Y0155728D02*
X0198289Y0157980D01*
X0199039Y0158731D01*
X0200541Y0158731D01*
X0201291Y0157980D01*
X0201291Y0155728D01*
X0202793Y0155728D02*
X0198289Y0155728D01*
X0199039Y0160332D02*
X0198289Y0161083D01*
X0198289Y0162584D01*
X0199039Y0163334D01*
X0199790Y0163334D01*
X0202793Y0160332D01*
X0202793Y0163334D01*
X0110319Y0193065D02*
X0107317Y0193065D01*
X0108818Y0193065D02*
X0108818Y0197569D01*
X0107317Y0196068D01*
X0105716Y0196818D02*
X0104965Y0197569D01*
X0103464Y0197569D01*
X0102713Y0196818D01*
X0102713Y0193816D01*
X0103464Y0193065D01*
X0104965Y0193065D01*
X0105716Y0193816D01*
X0101145Y0193065D02*
X0099644Y0193065D01*
X0100394Y0193065D02*
X0100394Y0197569D01*
X0099644Y0197569D02*
X0101145Y0197569D01*
D13*
X0078819Y0170607D02*
X0077285Y0170607D01*
X0076517Y0169840D01*
X0078052Y0168305D02*
X0078819Y0168305D01*
X0079587Y0167538D01*
X0079587Y0166770D01*
X0078819Y0166003D01*
X0077285Y0166003D01*
X0076517Y0166770D01*
X0074983Y0166003D02*
X0071913Y0166003D01*
X0070379Y0166003D02*
X0068844Y0167538D01*
X0069611Y0167538D02*
X0067309Y0167538D01*
X0067309Y0166003D02*
X0067309Y0170607D01*
X0069611Y0170607D01*
X0070379Y0169840D01*
X0070379Y0168305D01*
X0069611Y0167538D01*
X0071913Y0169072D02*
X0073448Y0170607D01*
X0073448Y0166003D01*
X0078819Y0168305D02*
X0079587Y0169072D01*
X0079587Y0169840D01*
X0078819Y0170607D01*
X0079449Y0151473D02*
X0077147Y0149171D01*
X0080217Y0149171D01*
X0079449Y0146869D02*
X0079449Y0151473D01*
X0074078Y0151473D02*
X0074078Y0146869D01*
X0072543Y0146869D02*
X0075613Y0146869D01*
X0072543Y0149939D02*
X0074078Y0151473D01*
X0071009Y0150706D02*
X0071009Y0149171D01*
X0070241Y0148404D01*
X0067939Y0148404D01*
X0067939Y0146869D02*
X0067939Y0151473D01*
X0070241Y0151473D01*
X0071009Y0150706D01*
X0069474Y0148404D02*
X0071009Y0146869D01*
X0071265Y0131158D02*
X0068963Y0131158D01*
X0068963Y0126554D01*
X0068963Y0128089D02*
X0071265Y0128089D01*
X0072032Y0128856D01*
X0072032Y0130391D01*
X0071265Y0131158D01*
X0073567Y0129624D02*
X0075102Y0131158D01*
X0075102Y0126554D01*
X0076636Y0126554D02*
X0073567Y0126554D01*
X0072032Y0126554D02*
X0070498Y0128089D01*
X0078171Y0128856D02*
X0079705Y0129624D01*
X0080473Y0129624D01*
X0081240Y0128856D01*
X0081240Y0127322D01*
X0080473Y0126554D01*
X0078938Y0126554D01*
X0078171Y0127322D01*
X0078171Y0128856D02*
X0078171Y0131158D01*
X0081240Y0131158D01*
X0055453Y0130391D02*
X0055453Y0129624D01*
X0054685Y0128856D01*
X0055453Y0128089D01*
X0055453Y0127322D01*
X0054685Y0126554D01*
X0053151Y0126554D01*
X0052383Y0127322D01*
X0050849Y0127322D02*
X0050081Y0126554D01*
X0047780Y0126554D01*
X0047780Y0131158D01*
X0050081Y0131158D01*
X0050849Y0130391D01*
X0050849Y0127322D01*
X0052383Y0130391D02*
X0053151Y0131158D01*
X0054685Y0131158D01*
X0055453Y0130391D01*
X0054685Y0128856D02*
X0053918Y0128856D01*
X0046245Y0126554D02*
X0043176Y0126554D01*
X0043176Y0131158D01*
X0046245Y0131158D01*
X0044710Y0128856D02*
X0043176Y0128856D01*
X0041641Y0126554D02*
X0038572Y0126554D01*
X0038572Y0131158D01*
X0038572Y0146909D02*
X0041641Y0146909D01*
X0043176Y0146909D02*
X0046245Y0146909D01*
X0047780Y0146909D02*
X0050081Y0146909D01*
X0050849Y0147676D01*
X0050849Y0150745D01*
X0050081Y0151513D01*
X0047780Y0151513D01*
X0047780Y0146909D01*
X0044710Y0149211D02*
X0043176Y0149211D01*
X0043176Y0151513D02*
X0043176Y0146909D01*
X0038572Y0146909D02*
X0038572Y0151513D01*
X0043176Y0151513D02*
X0046245Y0151513D01*
X0052383Y0150745D02*
X0053151Y0151513D01*
X0054685Y0151513D01*
X0055453Y0150745D01*
X0055453Y0149978D01*
X0052383Y0146909D01*
X0055453Y0146909D01*
X0055531Y0165846D02*
X0052462Y0165846D01*
X0053997Y0165846D02*
X0053997Y0170450D01*
X0052462Y0168915D01*
X0050928Y0169682D02*
X0050928Y0166613D01*
X0050160Y0165846D01*
X0047858Y0165846D01*
X0047858Y0170450D01*
X0050160Y0170450D01*
X0050928Y0169682D01*
X0046324Y0170450D02*
X0043254Y0170450D01*
X0043254Y0165846D01*
X0046324Y0165846D01*
X0044789Y0168148D02*
X0043254Y0168148D01*
X0041720Y0165846D02*
X0038650Y0165846D01*
X0038650Y0170450D01*
X0139231Y0171594D02*
X0139231Y0176198D01*
X0141533Y0176198D01*
X0142301Y0175430D01*
X0142301Y0173896D01*
X0141533Y0173128D01*
X0139231Y0173128D01*
X0140766Y0173128D02*
X0142301Y0171594D01*
X0143835Y0171594D02*
X0146905Y0171594D01*
X0145370Y0171594D02*
X0145370Y0176198D01*
X0143835Y0174663D01*
X0148439Y0174663D02*
X0148439Y0175430D01*
X0149207Y0176198D01*
X0150741Y0176198D01*
X0151509Y0175430D01*
X0151509Y0174663D01*
X0150741Y0173896D01*
X0149207Y0173896D01*
X0148439Y0174663D01*
X0149207Y0173896D02*
X0148439Y0173128D01*
X0148439Y0172361D01*
X0149207Y0171594D01*
X0150741Y0171594D01*
X0151509Y0172361D01*
X0151509Y0173128D01*
X0150741Y0173896D01*
X0160688Y0171633D02*
X0163757Y0171633D01*
X0165292Y0171633D02*
X0168361Y0171633D01*
X0169896Y0171633D02*
X0172198Y0171633D01*
X0172965Y0172400D01*
X0172965Y0175470D01*
X0172198Y0176237D01*
X0169896Y0176237D01*
X0169896Y0171633D01*
X0166827Y0173935D02*
X0165292Y0173935D01*
X0165292Y0176237D02*
X0165292Y0171633D01*
X0160688Y0171633D02*
X0160688Y0176237D01*
X0165292Y0176237D02*
X0168361Y0176237D01*
X0174500Y0173935D02*
X0174500Y0172400D01*
X0175267Y0171633D01*
X0176802Y0171633D01*
X0177569Y0172400D01*
X0177569Y0173168D01*
X0176802Y0173935D01*
X0174500Y0173935D01*
X0176035Y0175470D01*
X0177569Y0176237D01*
X0178240Y0156355D02*
X0178240Y0154053D01*
X0179775Y0154820D01*
X0180542Y0154820D01*
X0181309Y0154053D01*
X0181309Y0152518D01*
X0180542Y0151751D01*
X0179007Y0151751D01*
X0178240Y0152518D01*
X0176705Y0152518D02*
X0176705Y0155588D01*
X0175938Y0156355D01*
X0173636Y0156355D01*
X0173636Y0151751D01*
X0175938Y0151751D01*
X0176705Y0152518D01*
X0178240Y0156355D02*
X0181309Y0156355D01*
X0172102Y0156355D02*
X0169032Y0156355D01*
X0169032Y0151751D01*
X0172102Y0151751D01*
X0170567Y0154053D02*
X0169032Y0154053D01*
X0167498Y0151751D02*
X0164428Y0151751D01*
X0164428Y0156355D01*
X0151745Y0156237D02*
X0151745Y0155470D01*
X0148676Y0152400D01*
X0148676Y0151633D01*
X0147141Y0151633D02*
X0144072Y0151633D01*
X0145606Y0151633D02*
X0145606Y0156237D01*
X0144072Y0154702D01*
X0142537Y0153935D02*
X0141770Y0153168D01*
X0139468Y0153168D01*
X0141002Y0153168D02*
X0142537Y0151633D01*
X0142537Y0153935D02*
X0142537Y0155470D01*
X0141770Y0156237D01*
X0139468Y0156237D01*
X0139468Y0151633D01*
X0148676Y0156237D02*
X0151745Y0156237D01*
X0152020Y0136158D02*
X0150486Y0135391D01*
X0148951Y0133856D01*
X0151253Y0133856D01*
X0152020Y0133089D01*
X0152020Y0132322D01*
X0151253Y0131554D01*
X0149718Y0131554D01*
X0148951Y0132322D01*
X0148951Y0133856D01*
X0147417Y0131554D02*
X0144347Y0131554D01*
X0142813Y0131554D02*
X0141278Y0133089D01*
X0142045Y0133089D02*
X0139743Y0133089D01*
X0139743Y0131554D02*
X0139743Y0136158D01*
X0142045Y0136158D01*
X0142813Y0135391D01*
X0142813Y0133856D01*
X0142045Y0133089D01*
X0144347Y0134624D02*
X0145882Y0136158D01*
X0145882Y0131554D01*
X0163720Y0131436D02*
X0166789Y0131436D01*
X0168324Y0131436D02*
X0171393Y0131436D01*
X0172928Y0131436D02*
X0175229Y0131436D01*
X0175997Y0132204D01*
X0175997Y0135273D01*
X0175229Y0136040D01*
X0172928Y0136040D01*
X0172928Y0131436D01*
X0169858Y0133738D02*
X0168324Y0133738D01*
X0168324Y0136040D02*
X0168324Y0131436D01*
X0168324Y0136040D02*
X0171393Y0136040D01*
X0177531Y0133738D02*
X0180601Y0133738D01*
X0179833Y0131436D02*
X0179833Y0136040D01*
X0177531Y0133738D01*
X0163720Y0136040D02*
X0163720Y0131436D01*
X0162139Y0058996D02*
X0162139Y0055927D01*
X0162139Y0057461D02*
X0157535Y0057461D01*
X0159069Y0055927D01*
X0162139Y0054392D02*
X0162139Y0051323D01*
X0162139Y0052857D02*
X0157535Y0052857D01*
X0159069Y0051323D01*
X0158302Y0049788D02*
X0159837Y0049788D01*
X0160604Y0049021D01*
X0160604Y0046719D01*
X0160604Y0048254D02*
X0162139Y0049788D01*
X0162139Y0046719D02*
X0157535Y0046719D01*
X0157535Y0049021D01*
X0158302Y0049788D01*
X0161609Y0026673D02*
X0162376Y0026673D01*
X0163144Y0025906D01*
X0163144Y0024371D01*
X0162376Y0023604D01*
X0161609Y0023604D01*
X0160842Y0024371D01*
X0160842Y0025906D01*
X0161609Y0026673D01*
X0163144Y0025906D02*
X0163911Y0026673D01*
X0164678Y0026673D01*
X0165446Y0025906D01*
X0165446Y0024371D01*
X0164678Y0023604D01*
X0163911Y0023604D01*
X0163144Y0024371D01*
X0163144Y0022069D02*
X0161609Y0022069D01*
X0160842Y0021302D01*
X0160842Y0019000D01*
X0165446Y0019000D01*
X0163911Y0019000D02*
X0163911Y0021302D01*
X0163144Y0022069D01*
X0163911Y0020535D02*
X0165446Y0022069D01*
X0143123Y0021991D02*
X0143123Y0018921D01*
X0143123Y0017387D02*
X0141588Y0015852D01*
X0141588Y0016619D02*
X0141588Y0014317D01*
X0143123Y0014317D02*
X0138519Y0014317D01*
X0138519Y0016619D01*
X0139286Y0017387D01*
X0140821Y0017387D01*
X0141588Y0016619D01*
X0140054Y0018921D02*
X0138519Y0020456D01*
X0143123Y0020456D01*
X0143123Y0023525D02*
X0140054Y0026594D01*
X0139286Y0026594D01*
X0138519Y0025827D01*
X0138519Y0024292D01*
X0139286Y0023525D01*
X0143123Y0023525D02*
X0143123Y0026594D01*
X0120682Y0025985D02*
X0116078Y0025985D01*
X0118380Y0023683D01*
X0118380Y0026752D01*
X0118380Y0022148D02*
X0116845Y0022148D01*
X0116078Y0021381D01*
X0116078Y0019079D01*
X0120682Y0019079D01*
X0119147Y0019079D02*
X0119147Y0021381D01*
X0118380Y0022148D01*
X0119147Y0020613D02*
X0120682Y0022148D01*
X0095682Y0022384D02*
X0095682Y0019315D01*
X0095682Y0020850D02*
X0091078Y0020850D01*
X0092613Y0019315D01*
X0093380Y0017780D02*
X0091845Y0017780D01*
X0091078Y0017013D01*
X0091078Y0014711D01*
X0095682Y0014711D01*
X0094147Y0014711D02*
X0094147Y0017013D01*
X0093380Y0017780D01*
X0094147Y0016246D02*
X0095682Y0017780D01*
X0094915Y0023919D02*
X0091845Y0023919D01*
X0091078Y0024686D01*
X0091078Y0026221D01*
X0091845Y0026988D01*
X0094915Y0023919D01*
X0095682Y0024686D01*
X0095682Y0026221D01*
X0094915Y0026988D01*
X0091845Y0026988D01*
X0072611Y0026103D02*
X0071844Y0026870D01*
X0071076Y0026870D01*
X0070309Y0026103D01*
X0070309Y0023801D01*
X0071844Y0023801D01*
X0072611Y0024568D01*
X0072611Y0026103D01*
X0070309Y0023801D02*
X0068774Y0025335D01*
X0068007Y0026870D01*
X0068774Y0022266D02*
X0070309Y0022266D01*
X0071076Y0021499D01*
X0071076Y0019197D01*
X0071076Y0020731D02*
X0072611Y0022266D01*
X0072611Y0019197D02*
X0068007Y0019197D01*
X0068007Y0021499D01*
X0068774Y0022266D01*
X0050564Y0022148D02*
X0049029Y0020613D01*
X0049029Y0021381D02*
X0049029Y0019079D01*
X0050564Y0019079D02*
X0045960Y0019079D01*
X0045960Y0021381D01*
X0046727Y0022148D01*
X0048262Y0022148D01*
X0049029Y0021381D01*
X0050564Y0023683D02*
X0047495Y0026752D01*
X0046727Y0026752D01*
X0045960Y0025985D01*
X0045960Y0024450D01*
X0046727Y0023683D01*
X0050564Y0023683D02*
X0050564Y0026752D01*
X0038005Y0052150D02*
X0033401Y0052150D01*
X0033401Y0054452D01*
X0034168Y0055219D01*
X0035703Y0055219D01*
X0036470Y0054452D01*
X0036470Y0052150D01*
X0036470Y0053684D02*
X0038005Y0055219D01*
X0038005Y0056754D02*
X0038005Y0059823D01*
X0038005Y0058288D02*
X0033401Y0058288D01*
X0034935Y0056754D01*
X0064346Y0056360D02*
X0066648Y0056360D01*
X0065880Y0057894D01*
X0065880Y0058662D01*
X0066648Y0059429D01*
X0068182Y0059429D01*
X0068950Y0058662D01*
X0068950Y0057127D01*
X0068182Y0056360D01*
X0068950Y0054825D02*
X0067415Y0053291D01*
X0067415Y0054058D02*
X0067415Y0051756D01*
X0068950Y0051756D02*
X0064346Y0051756D01*
X0064346Y0054058D01*
X0065113Y0054825D01*
X0066648Y0054825D01*
X0067415Y0054058D01*
X0064346Y0056360D02*
X0064346Y0059429D01*
X0096039Y0058465D02*
X0096039Y0056930D01*
X0096806Y0056163D01*
X0097573Y0056163D01*
X0098341Y0056930D01*
X0098341Y0059232D01*
X0099875Y0059232D02*
X0096806Y0059232D01*
X0096039Y0058465D01*
X0099875Y0059232D02*
X0100643Y0058465D01*
X0100643Y0056930D01*
X0099875Y0056163D01*
X0100643Y0054628D02*
X0099108Y0053094D01*
X0099108Y0053861D02*
X0099108Y0051559D01*
X0100643Y0051559D02*
X0096039Y0051559D01*
X0096039Y0053861D01*
X0096806Y0054628D01*
X0098341Y0054628D01*
X0099108Y0053861D01*
X0126983Y0053507D02*
X0126983Y0051205D01*
X0131587Y0051205D01*
X0130053Y0051205D02*
X0130053Y0053507D01*
X0129285Y0054274D01*
X0127751Y0054274D01*
X0126983Y0053507D01*
X0127751Y0055809D02*
X0126983Y0056576D01*
X0126983Y0058111D01*
X0127751Y0058878D01*
X0128518Y0058878D01*
X0129285Y0058111D01*
X0130053Y0058878D01*
X0130820Y0058878D01*
X0131587Y0058111D01*
X0131587Y0056576D01*
X0130820Y0055809D01*
X0131587Y0054274D02*
X0130053Y0052739D01*
X0129285Y0057343D02*
X0129285Y0058111D01*
X0188834Y0058996D02*
X0188834Y0055927D01*
X0189601Y0054392D02*
X0188834Y0053625D01*
X0188834Y0051323D01*
X0193438Y0051323D01*
X0191903Y0051323D02*
X0191903Y0053625D01*
X0191136Y0054392D01*
X0189601Y0054392D01*
X0191903Y0052857D02*
X0193438Y0054392D01*
X0193438Y0055927D02*
X0192670Y0055927D01*
X0189601Y0058996D01*
X0188834Y0058996D01*
D14*
X0170734Y0123530D03*
X0170734Y0128943D03*
X0171443Y0143844D03*
X0171443Y0149258D03*
X0167703Y0163726D03*
X0167703Y0169140D03*
X0049652Y0172939D03*
X0049652Y0178352D03*
X0049573Y0159415D03*
X0049573Y0154002D03*
X0049573Y0139061D03*
X0049573Y0133648D03*
D15*
X0051098Y0136354D03*
X0051098Y0156709D03*
X0051177Y0175646D03*
X0166177Y0166433D03*
X0169917Y0146551D03*
X0169209Y0126236D03*
D16*
X0162632Y0105311D02*
X0161531Y0105311D01*
X0161164Y0104944D01*
X0161164Y0104210D01*
X0161898Y0104210D02*
X0161898Y0105311D01*
X0162632Y0105311D02*
X0162632Y0104210D01*
X0162265Y0103843D01*
X0161898Y0104210D01*
X0161898Y0103101D02*
X0161898Y0101633D01*
X0161531Y0101633D02*
X0161164Y0102000D01*
X0161164Y0102734D01*
X0161531Y0103101D01*
X0161898Y0103101D01*
X0162632Y0102734D02*
X0162632Y0102000D01*
X0162265Y0101633D01*
X0161531Y0101633D01*
X0161164Y0100892D02*
X0161164Y0100525D01*
X0161898Y0099791D01*
X0162632Y0099791D02*
X0161164Y0099791D01*
X0161164Y0099049D02*
X0162632Y0099049D01*
X0161531Y0099049D02*
X0161531Y0097581D01*
X0161164Y0097581D02*
X0160430Y0098315D01*
X0161164Y0099049D01*
X0161164Y0097581D02*
X0162632Y0097581D01*
X0162632Y0094630D02*
X0162632Y0093529D01*
X0162265Y0093162D01*
X0161531Y0093162D01*
X0161164Y0093529D01*
X0161164Y0094630D01*
X0162999Y0094630D01*
X0163366Y0094263D01*
X0163366Y0093896D01*
X0162632Y0092420D02*
X0161531Y0092420D01*
X0161164Y0092053D01*
X0161164Y0090952D01*
X0162632Y0090952D01*
X0162632Y0090212D02*
X0162632Y0089478D01*
X0162632Y0089845D02*
X0161164Y0089845D01*
X0161164Y0089478D01*
X0161164Y0088738D02*
X0161898Y0087637D01*
X0162632Y0088738D01*
X0162632Y0087637D02*
X0160430Y0087637D01*
X0161164Y0086896D02*
X0161164Y0086529D01*
X0161898Y0085795D01*
X0162632Y0085795D02*
X0161164Y0085795D01*
X0161531Y0085053D02*
X0162632Y0085053D01*
X0162632Y0083952D01*
X0162265Y0083585D01*
X0161898Y0083952D01*
X0161898Y0085053D01*
X0161531Y0085053D02*
X0161164Y0084686D01*
X0161164Y0083952D01*
X0160430Y0082844D02*
X0162632Y0082844D01*
X0162632Y0081376D02*
X0160430Y0081376D01*
X0161164Y0082110D01*
X0160430Y0082844D01*
X0160430Y0089845D02*
X0160063Y0089845D01*
X0132579Y0094604D02*
X0132579Y0094971D01*
X0132212Y0095338D01*
X0130377Y0095338D01*
X0130377Y0094237D01*
X0130744Y0093870D01*
X0131478Y0093870D01*
X0131845Y0094237D01*
X0131845Y0095338D01*
X0131845Y0093128D02*
X0130744Y0093128D01*
X0130377Y0092761D01*
X0130377Y0091660D01*
X0131845Y0091660D01*
X0131845Y0090921D02*
X0131845Y0090187D01*
X0131845Y0090554D02*
X0130377Y0090554D01*
X0130377Y0090187D01*
X0130377Y0089447D02*
X0131111Y0088346D01*
X0131845Y0089447D01*
X0131845Y0088346D02*
X0129643Y0088346D01*
X0130377Y0087605D02*
X0130377Y0087238D01*
X0131111Y0086504D01*
X0131845Y0086504D02*
X0130377Y0086504D01*
X0130744Y0085762D02*
X0131845Y0085762D01*
X0131845Y0084661D01*
X0131478Y0084294D01*
X0131111Y0084661D01*
X0131111Y0085762D01*
X0130744Y0085762D02*
X0130377Y0085395D01*
X0130377Y0084661D01*
X0129643Y0083552D02*
X0131845Y0083552D01*
X0131845Y0082084D02*
X0129643Y0082084D01*
X0130377Y0082818D01*
X0129643Y0083552D01*
X0129643Y0090554D02*
X0129276Y0090554D01*
X0130377Y0098290D02*
X0129643Y0099024D01*
X0130377Y0099758D01*
X0131845Y0099758D01*
X0131845Y0100500D02*
X0130377Y0100500D01*
X0130377Y0101234D02*
X0130377Y0101601D01*
X0130377Y0101234D02*
X0131111Y0100500D01*
X0130744Y0099758D02*
X0130744Y0098290D01*
X0130377Y0098290D02*
X0131845Y0098290D01*
X0131478Y0102341D02*
X0130744Y0102341D01*
X0130377Y0102708D01*
X0130377Y0103442D01*
X0130744Y0103809D01*
X0131111Y0103809D01*
X0131111Y0102341D01*
X0131478Y0102341D02*
X0131845Y0102708D01*
X0131845Y0103442D01*
X0131478Y0104551D02*
X0131111Y0104918D01*
X0131111Y0106019D01*
X0130744Y0106019D02*
X0131845Y0106019D01*
X0131845Y0104918D01*
X0131478Y0104551D01*
X0130377Y0104918D02*
X0130377Y0105652D01*
X0130744Y0106019D01*
X0101018Y0105822D02*
X0101018Y0104722D01*
X0100651Y0104355D01*
X0100284Y0104722D01*
X0100284Y0105822D01*
X0099917Y0105822D02*
X0101018Y0105822D01*
X0099917Y0105822D02*
X0099550Y0105455D01*
X0099550Y0104722D01*
X0099917Y0103613D02*
X0100284Y0103613D01*
X0100284Y0102145D01*
X0099917Y0102145D02*
X0099550Y0102512D01*
X0099550Y0103246D01*
X0099917Y0103613D01*
X0101018Y0103246D02*
X0101018Y0102512D01*
X0100651Y0102145D01*
X0099917Y0102145D01*
X0099550Y0101404D02*
X0099550Y0101037D01*
X0100284Y0100303D01*
X0101018Y0100303D02*
X0099550Y0100303D01*
X0099550Y0099561D02*
X0101018Y0099561D01*
X0099917Y0099561D02*
X0099917Y0098093D01*
X0099550Y0098093D02*
X0098816Y0098827D01*
X0099550Y0099561D01*
X0099550Y0098093D02*
X0101018Y0098093D01*
X0101018Y0095141D02*
X0101018Y0094040D01*
X0100651Y0093673D01*
X0099917Y0093673D01*
X0099550Y0094040D01*
X0099550Y0095141D01*
X0101385Y0095141D01*
X0101752Y0094774D01*
X0101752Y0094407D01*
X0101018Y0092931D02*
X0099917Y0092931D01*
X0099550Y0092564D01*
X0099550Y0091464D01*
X0101018Y0091464D01*
X0101018Y0090724D02*
X0101018Y0089990D01*
X0101018Y0090357D02*
X0099550Y0090357D01*
X0099550Y0089990D01*
X0099550Y0089250D02*
X0100284Y0088149D01*
X0101018Y0089250D01*
X0101018Y0088149D02*
X0098816Y0088149D01*
X0099550Y0087408D02*
X0099550Y0087041D01*
X0100284Y0086307D01*
X0101018Y0086307D02*
X0099550Y0086307D01*
X0099917Y0085565D02*
X0101018Y0085565D01*
X0101018Y0084464D01*
X0100651Y0084097D01*
X0100284Y0084464D01*
X0100284Y0085565D01*
X0099917Y0085565D02*
X0099550Y0085198D01*
X0099550Y0084464D01*
X0098816Y0083355D02*
X0101018Y0083355D01*
X0101018Y0081887D02*
X0098816Y0081887D01*
X0099550Y0082621D01*
X0098816Y0083355D01*
X0098816Y0090357D02*
X0098449Y0090357D01*
X0070807Y0094407D02*
X0070807Y0094774D01*
X0070440Y0095141D01*
X0068605Y0095141D01*
X0068605Y0094040D01*
X0068972Y0093673D01*
X0069706Y0093673D01*
X0070073Y0094040D01*
X0070073Y0095141D01*
X0070073Y0092931D02*
X0068972Y0092931D01*
X0068605Y0092564D01*
X0068605Y0091464D01*
X0070073Y0091464D01*
X0070073Y0090724D02*
X0070073Y0089990D01*
X0070073Y0090357D02*
X0068605Y0090357D01*
X0068605Y0089990D01*
X0068605Y0089250D02*
X0069339Y0088149D01*
X0070073Y0089250D01*
X0070073Y0088149D02*
X0067871Y0088149D01*
X0068605Y0087408D02*
X0068605Y0087041D01*
X0069339Y0086307D01*
X0070073Y0086307D02*
X0068605Y0086307D01*
X0068972Y0085565D02*
X0070073Y0085565D01*
X0070073Y0084464D01*
X0069706Y0084097D01*
X0069339Y0084464D01*
X0069339Y0085565D01*
X0068972Y0085565D02*
X0068605Y0085198D01*
X0068605Y0084464D01*
X0067871Y0083355D02*
X0070073Y0083355D01*
X0070073Y0081887D02*
X0067871Y0081887D01*
X0068605Y0082621D01*
X0067871Y0083355D01*
X0067871Y0090357D02*
X0067504Y0090357D01*
X0068605Y0098093D02*
X0067871Y0098827D01*
X0068605Y0099561D01*
X0070073Y0099561D01*
X0070073Y0100303D02*
X0068605Y0100303D01*
X0068605Y0101037D02*
X0068605Y0101404D01*
X0068605Y0101037D02*
X0069339Y0100303D01*
X0068972Y0099561D02*
X0068972Y0098093D01*
X0068605Y0098093D02*
X0070073Y0098093D01*
X0069706Y0102145D02*
X0068972Y0102145D01*
X0068605Y0102512D01*
X0068605Y0103246D01*
X0068972Y0103613D01*
X0069339Y0103613D01*
X0069339Y0102145D01*
X0069706Y0102145D02*
X0070073Y0102512D01*
X0070073Y0103246D01*
X0069706Y0104355D02*
X0069339Y0104722D01*
X0069339Y0105822D01*
X0068972Y0105822D02*
X0070073Y0105822D01*
X0070073Y0104722D01*
X0069706Y0104355D01*
X0068605Y0104722D02*
X0068605Y0105455D01*
X0068972Y0105822D01*
X0038026Y0106177D02*
X0038026Y0105076D01*
X0037659Y0104709D01*
X0037292Y0105076D01*
X0037292Y0106177D01*
X0036925Y0106177D02*
X0038026Y0106177D01*
X0036925Y0106177D02*
X0036558Y0105810D01*
X0036558Y0105076D01*
X0036925Y0103967D02*
X0037292Y0103967D01*
X0037292Y0102499D01*
X0037659Y0102499D02*
X0036925Y0102499D01*
X0036558Y0102866D01*
X0036558Y0103600D01*
X0036925Y0103967D01*
X0038026Y0103600D02*
X0038026Y0102866D01*
X0037659Y0102499D01*
X0036558Y0101758D02*
X0036558Y0101391D01*
X0037292Y0100657D01*
X0038026Y0100657D02*
X0036558Y0100657D01*
X0036558Y0099915D02*
X0038026Y0099915D01*
X0036925Y0099915D02*
X0036925Y0098448D01*
X0036558Y0098448D02*
X0035824Y0099181D01*
X0036558Y0099915D01*
X0036558Y0098448D02*
X0038026Y0098448D01*
X0038026Y0095496D02*
X0038026Y0094395D01*
X0037659Y0094028D01*
X0036925Y0094028D01*
X0036558Y0094395D01*
X0036558Y0095496D01*
X0038393Y0095496D01*
X0038760Y0095129D01*
X0038760Y0094762D01*
X0038026Y0093286D02*
X0036925Y0093286D01*
X0036558Y0092919D01*
X0036558Y0091818D01*
X0038026Y0091818D01*
X0038026Y0091079D02*
X0038026Y0090345D01*
X0038026Y0090712D02*
X0036558Y0090712D01*
X0036558Y0090345D01*
X0036558Y0089604D02*
X0037292Y0088503D01*
X0038026Y0089604D01*
X0038026Y0088503D02*
X0035824Y0088503D01*
X0036558Y0087762D02*
X0036558Y0087395D01*
X0037292Y0086661D01*
X0038026Y0086661D02*
X0036558Y0086661D01*
X0036925Y0085920D02*
X0038026Y0085920D01*
X0038026Y0084819D01*
X0037659Y0084452D01*
X0037292Y0084819D01*
X0037292Y0085920D01*
X0036925Y0085920D02*
X0036558Y0085553D01*
X0036558Y0084819D01*
X0035824Y0083710D02*
X0038026Y0083710D01*
X0038026Y0082242D02*
X0035824Y0082242D01*
X0036558Y0082976D01*
X0035824Y0083710D01*
X0035824Y0090712D02*
X0035457Y0090712D01*
X0008051Y0094801D02*
X0008051Y0095168D01*
X0007684Y0095535D01*
X0005849Y0095535D01*
X0005849Y0094434D01*
X0006216Y0094067D01*
X0006950Y0094067D01*
X0007317Y0094434D01*
X0007317Y0095535D01*
X0007317Y0093325D02*
X0006216Y0093325D01*
X0005849Y0092958D01*
X0005849Y0091857D01*
X0007317Y0091857D01*
X0007317Y0091118D02*
X0007317Y0090384D01*
X0007317Y0090751D02*
X0005849Y0090751D01*
X0005849Y0090384D01*
X0005849Y0089643D02*
X0006583Y0088542D01*
X0007317Y0089643D01*
X0007317Y0088542D02*
X0005115Y0088542D01*
X0005849Y0087802D02*
X0005849Y0087435D01*
X0006583Y0086701D01*
X0007317Y0086701D02*
X0005849Y0086701D01*
X0006216Y0085959D02*
X0005849Y0085592D01*
X0005849Y0084858D01*
X0006583Y0084858D02*
X0006583Y0085959D01*
X0006216Y0085959D02*
X0007317Y0085959D01*
X0007317Y0084858D01*
X0006950Y0084491D01*
X0006583Y0084858D01*
X0007317Y0083749D02*
X0005115Y0083749D01*
X0005849Y0083015D01*
X0005115Y0082281D01*
X0007317Y0082281D01*
X0005115Y0090751D02*
X0004748Y0090751D01*
X0005849Y0098487D02*
X0005115Y0099221D01*
X0005849Y0099955D01*
X0007317Y0099955D01*
X0007317Y0100697D02*
X0005849Y0100697D01*
X0005849Y0101431D02*
X0005849Y0101798D01*
X0005849Y0101431D02*
X0006583Y0100697D01*
X0006216Y0099955D02*
X0006216Y0098487D01*
X0005849Y0098487D02*
X0007317Y0098487D01*
X0006950Y0102538D02*
X0006216Y0102538D01*
X0005849Y0102905D01*
X0005849Y0103639D01*
X0006216Y0104006D01*
X0006583Y0104006D01*
X0006583Y0102538D01*
X0006950Y0102538D02*
X0007317Y0102905D01*
X0007317Y0103639D01*
X0006950Y0104748D02*
X0006583Y0105115D01*
X0006583Y0106216D01*
X0006216Y0106216D02*
X0007317Y0106216D01*
X0007317Y0105115D01*
X0006950Y0104748D01*
X0005849Y0105115D02*
X0005849Y0105849D01*
X0006216Y0106216D01*
D17*
X0011898Y0034801D02*
X0012866Y0033833D01*
X0013833Y0034801D01*
X0013833Y0031898D01*
X0014845Y0031898D02*
X0014845Y0034801D01*
X0016780Y0031898D01*
X0016780Y0034801D01*
X0017791Y0034801D02*
X0019726Y0034801D01*
X0018759Y0034801D02*
X0018759Y0031898D01*
X0020738Y0032382D02*
X0021221Y0031898D01*
X0022189Y0031898D01*
X0022673Y0032382D01*
X0022673Y0032866D01*
X0022189Y0033349D01*
X0021705Y0033349D01*
X0022189Y0033349D02*
X0022673Y0033833D01*
X0022673Y0034317D01*
X0022189Y0034801D01*
X0021221Y0034801D01*
X0020738Y0034317D01*
X0011898Y0034801D02*
X0011898Y0031898D01*
X0011898Y0197252D02*
X0011898Y0200155D01*
X0012866Y0199187D01*
X0013833Y0200155D01*
X0013833Y0197252D01*
X0014845Y0197252D02*
X0014845Y0200155D01*
X0016780Y0197252D01*
X0016780Y0200155D01*
X0017791Y0200155D02*
X0019726Y0200155D01*
X0018759Y0200155D02*
X0018759Y0197252D01*
X0020738Y0197252D02*
X0022673Y0197252D01*
X0021705Y0197252D02*
X0021705Y0200155D01*
X0020738Y0199187D01*
X0177252Y0200155D02*
X0177252Y0197252D01*
X0179187Y0197252D02*
X0179187Y0200155D01*
X0178220Y0199187D01*
X0177252Y0200155D01*
X0180199Y0200155D02*
X0180199Y0197252D01*
X0182134Y0197252D02*
X0180199Y0200155D01*
X0182134Y0200155D02*
X0182134Y0197252D01*
X0184113Y0197252D02*
X0184113Y0200155D01*
X0185080Y0200155D02*
X0183145Y0200155D01*
X0186092Y0199671D02*
X0186576Y0200155D01*
X0187543Y0200155D01*
X0188027Y0199671D01*
X0188027Y0199187D01*
X0186092Y0197252D01*
X0188027Y0197252D01*
X0187543Y0034801D02*
X0186092Y0033349D01*
X0188027Y0033349D01*
X0187543Y0031898D02*
X0187543Y0034801D01*
X0185080Y0034801D02*
X0183145Y0034801D01*
X0184113Y0034801D02*
X0184113Y0031898D01*
X0182134Y0031898D02*
X0182134Y0034801D01*
X0180199Y0034801D02*
X0182134Y0031898D01*
X0180199Y0031898D02*
X0180199Y0034801D01*
X0179187Y0034801D02*
X0179187Y0031898D01*
X0177252Y0031898D02*
X0177252Y0034801D01*
X0178220Y0033833D01*
X0179187Y0034801D01*
M02*
