%
M48
M72
T01C0.02362
T02C0.02400
T03C0.03200
T04C0.03937
T05C0.04000
T06C0.13500
%
T01
X49071Y38047
X81039Y39780
X112063Y38362
X142811Y38205
X163283Y38047
X178244Y116866
X156354Y139386
X156984Y160055
X136827Y181000
X181512Y159307
X181787Y151787
X86630Y123165
X44228Y123165
X83559Y165882
X60291Y182024
T02
X58874Y95016
X48874Y95016
X48874Y85016
X58874Y85016
X80921Y84661
X90921Y84661
X90921Y94661
X80921Y94661
X111866Y94661
X111866Y84661
X121866Y84661
X121866Y94661
X142693Y94858
X142693Y84858
X152693Y84858
X152693Y94858
X173480Y94150
X183480Y94150
X183480Y84150
X173480Y84150
X28165Y85055
X18165Y85055
X18165Y95055
X28165Y95055
T03
X96394Y126315
X96394Y136315
X96394Y146315
X96394Y156315
X96394Y166315
X96394Y176315
X96394Y186315
X126394Y186315
X126394Y176315
X126394Y166315
X126394Y156315
X126394Y146315
X126394Y136315
X126394Y126315
T04
X21669Y132299
X21669Y151984
T05
X45843Y189701
X55843Y189701
X65843Y189701
X190843Y159386
X190843Y149386
X190843Y139386
T06
X16748Y16748
X182102Y16748
X182102Y182102
X16748Y182102
M30
