G75*
%MOIN*%
%OFA0B0*%
%FSLAX25Y25*%
%IPPOS*%
%LPD*%
%AMOC8*
5,1,8,0,0,1.08239X$1,22.5*
%
%ADD10C,0.00600*%
%ADD11C,0.05200*%
%ADD12C,0.06000*%
%ADD13R,0.05906X0.05906*%
%ADD14R,0.07874X0.06299*%
%ADD15R,0.06299X0.07874*%
%ADD16C,0.05000*%
%ADD17OC8,0.07874*%
%ADD18C,0.27000*%
%ADD19C,0.01600*%
%ADD20C,0.03962*%
D10*
X0019104Y0116620D02*
X0019104Y0120890D01*
X0016969Y0118755D02*
X0021240Y0118755D01*
X0019242Y0160631D02*
X0019242Y0167036D01*
X0023512Y0160631D01*
X0023512Y0167036D01*
X0025687Y0167036D02*
X0028890Y0167036D01*
X0029957Y0165969D01*
X0029957Y0161698D01*
X0028890Y0160631D01*
X0025687Y0160631D01*
X0025687Y0167036D01*
X0017066Y0165969D02*
X0015999Y0167036D01*
X0013864Y0167036D01*
X0012796Y0165969D01*
X0012796Y0161698D01*
X0013864Y0160631D01*
X0015999Y0160631D01*
X0017066Y0161698D01*
X0017066Y0163833D01*
X0014931Y0163833D01*
D11*
X0093794Y0166315D02*
X0098994Y0166315D01*
X0098994Y0176315D02*
X0093794Y0176315D01*
X0093794Y0186315D02*
X0098994Y0186315D01*
X0123794Y0186315D02*
X0128994Y0186315D01*
X0128994Y0176315D02*
X0123794Y0176315D01*
X0123794Y0166315D02*
X0128994Y0166315D01*
X0128994Y0156315D02*
X0123794Y0156315D01*
X0123794Y0146315D02*
X0128994Y0146315D01*
X0128994Y0136315D02*
X0123794Y0136315D01*
X0123794Y0126315D02*
X0128994Y0126315D01*
X0098994Y0126315D02*
X0093794Y0126315D01*
X0093794Y0136315D02*
X0098994Y0136315D01*
X0098994Y0146315D02*
X0093794Y0146315D01*
X0093794Y0156315D02*
X0098994Y0156315D01*
D12*
X0065843Y0186701D02*
X0065843Y0192701D01*
X0055843Y0192701D02*
X0055843Y0186701D01*
X0045843Y0186701D02*
X0045843Y0192701D01*
X0187843Y0159386D02*
X0193843Y0159386D01*
X0193843Y0149386D02*
X0187843Y0149386D01*
X0187843Y0139386D02*
X0193843Y0139386D01*
D13*
X0176118Y0146551D03*
X0162339Y0146551D03*
X0158598Y0166433D03*
X0172378Y0166433D03*
X0175409Y0126236D03*
X0161630Y0126236D03*
X0058677Y0136354D03*
X0044898Y0136354D03*
X0044898Y0156709D03*
X0058677Y0156709D03*
X0058756Y0175646D03*
X0044976Y0175646D03*
D14*
X0028205Y0061669D03*
X0028205Y0050646D03*
X0040764Y0028598D03*
X0040764Y0017575D03*
X0062811Y0017693D03*
X0062811Y0028717D03*
X0059150Y0050252D03*
X0059150Y0061276D03*
X0085882Y0028835D03*
X0085882Y0017811D03*
X0110882Y0017575D03*
X0110882Y0028598D03*
X0133323Y0028441D03*
X0133323Y0017417D03*
X0155646Y0017496D03*
X0155646Y0028520D03*
X0152339Y0049819D03*
X0152339Y0060843D03*
X0121787Y0060724D03*
X0121787Y0049701D03*
X0090843Y0050055D03*
X0090843Y0061079D03*
X0183638Y0060843D03*
X0183638Y0049819D03*
D15*
X0150055Y0126354D03*
X0139031Y0126354D03*
X0138756Y0146433D03*
X0149780Y0146433D03*
X0149543Y0166394D03*
X0138520Y0166394D03*
X0083087Y0136354D03*
X0072063Y0136354D03*
X0071039Y0156669D03*
X0082063Y0156669D03*
X0081433Y0175803D03*
X0070409Y0175803D03*
D16*
X0058874Y0095016D03*
X0048874Y0095016D03*
X0048874Y0085016D03*
X0058874Y0085016D03*
X0080921Y0084661D03*
X0090921Y0084661D03*
X0090921Y0094661D03*
X0080921Y0094661D03*
X0111866Y0094661D03*
X0111866Y0084661D03*
X0121866Y0084661D03*
X0121866Y0094661D03*
X0142693Y0094858D03*
X0142693Y0084858D03*
X0152693Y0084858D03*
X0152693Y0094858D03*
X0173480Y0094150D03*
X0183480Y0094150D03*
X0183480Y0084150D03*
X0173480Y0084150D03*
X0028165Y0085055D03*
X0018165Y0085055D03*
X0018165Y0095055D03*
X0028165Y0095055D03*
D17*
X0021669Y0132299D03*
X0021669Y0151984D03*
D18*
X0016748Y0016748D03*
X0182102Y0016748D03*
X0182102Y0182102D03*
X0016748Y0182102D03*
D19*
X0037378Y0181236D02*
X0037378Y0121906D01*
X0044465Y0114819D01*
X0061512Y0114819D01*
X0072220Y0125528D01*
X0072260Y0125528D01*
X0083087Y0136354D01*
X0096394Y0136315D01*
X0096512Y0126354D02*
X0086591Y0123165D01*
X0072063Y0136354D02*
X0058677Y0136354D01*
X0044898Y0136354D02*
X0044228Y0123165D01*
X0042378Y0111591D02*
X0042378Y0050646D01*
X0059150Y0050646D01*
X0059150Y0050252D01*
X0090843Y0050252D01*
X0090843Y0050055D01*
X0121787Y0050055D01*
X0121787Y0049701D01*
X0152339Y0049701D01*
X0152339Y0049819D01*
X0170370Y0049819D01*
X0170370Y0032220D01*
X0155646Y0017496D01*
X0133323Y0017496D01*
X0133323Y0017417D01*
X0110882Y0017417D01*
X0110882Y0017575D01*
X0085882Y0017575D01*
X0085882Y0017811D01*
X0059819Y0017811D01*
X0059819Y0017339D01*
X0062811Y0017339D01*
X0062811Y0017693D01*
X0040764Y0017693D01*
X0040764Y0017575D01*
X0040764Y0028598D02*
X0030724Y0038638D01*
X0013520Y0038638D01*
X0010252Y0041906D01*
X0010252Y0090685D01*
X0014622Y0095055D01*
X0018165Y0095055D01*
X0028165Y0085055D02*
X0028205Y0061669D01*
X0028205Y0050646D02*
X0042378Y0050646D01*
X0049071Y0038047D02*
X0058402Y0028717D01*
X0062811Y0028717D01*
X0081039Y0039780D02*
X0085882Y0034937D01*
X0085882Y0028835D01*
X0110882Y0028598D02*
X0110882Y0037181D01*
X0112063Y0038362D01*
X0133323Y0028717D02*
X0133323Y0028441D01*
X0133323Y0028717D02*
X0142811Y0038205D01*
X0134937Y0049543D02*
X0134937Y0091315D01*
X0113126Y0113126D01*
X0113126Y0181551D01*
X0115213Y0183638D01*
X0124150Y0183638D01*
X0126787Y0186276D01*
X0131827Y0181039D02*
X0137024Y0181039D01*
X0131827Y0181039D02*
X0126748Y0175961D01*
X0126394Y0166315D02*
X0138520Y0166394D01*
X0144858Y0160055D01*
X0156984Y0160055D01*
X0158598Y0166433D02*
X0149543Y0166394D01*
X0149780Y0146433D02*
X0162339Y0146551D01*
X0156354Y0139386D02*
X0145803Y0139386D01*
X0138756Y0146433D01*
X0126394Y0146315D01*
X0126394Y0136315D02*
X0117732Y0127654D01*
X0117732Y0121276D01*
X0142693Y0096315D01*
X0142693Y0094858D01*
X0152693Y0084858D02*
X0152339Y0060843D01*
X0170370Y0049819D02*
X0183638Y0049819D01*
X0183638Y0060843D02*
X0183480Y0084150D01*
X0184031Y0109307D02*
X0148441Y0109307D01*
X0139307Y0118441D01*
X0139307Y0126079D01*
X0139031Y0126354D01*
X0126394Y0126315D01*
X0104976Y0116236D02*
X0104976Y0146354D01*
X0104937Y0146315D01*
X0096394Y0146315D01*
X0096394Y0156315D02*
X0082417Y0156315D01*
X0082063Y0156669D01*
X0082063Y0164386D01*
X0083559Y0165882D01*
X0081433Y0175803D02*
X0081945Y0176315D01*
X0096394Y0176315D01*
X0096394Y0186315D02*
X0101709Y0186315D01*
X0107811Y0180213D01*
X0107811Y0098717D01*
X0111866Y0094661D01*
X0121866Y0084661D02*
X0121787Y0060724D01*
X0090843Y0061079D02*
X0090921Y0084661D01*
X0104819Y0116079D02*
X0069937Y0116079D01*
X0048874Y0095016D01*
X0058874Y0085016D02*
X0059150Y0061276D01*
X0042378Y0111591D02*
X0021669Y0132299D01*
X0044898Y0136354D02*
X0044898Y0156709D01*
X0044976Y0175646D01*
X0037378Y0181236D02*
X0045843Y0189701D01*
X0055843Y0189701D02*
X0055843Y0182024D01*
X0060291Y0182024D01*
X0058756Y0175646D02*
X0070409Y0175803D01*
X0081433Y0175803D02*
X0081433Y0184543D01*
X0079307Y0186669D01*
X0068874Y0186669D01*
X0065843Y0189701D01*
X0071039Y0156669D02*
X0058677Y0156709D01*
X0104819Y0116079D02*
X0104976Y0116236D01*
X0150055Y0126354D02*
X0161630Y0126236D01*
X0175409Y0126236D02*
X0178244Y0116866D01*
X0184031Y0109307D02*
X0190843Y0116118D01*
X0190843Y0139386D01*
X0190843Y0149386D02*
X0184189Y0149386D01*
X0181787Y0151787D01*
X0181512Y0159307D02*
X0181591Y0159386D01*
X0190843Y0159386D01*
X0176118Y0146551D02*
X0175409Y0126236D01*
X0176118Y0146551D02*
X0172378Y0166433D01*
X0163283Y0038047D02*
X0155646Y0030409D01*
X0155646Y0028520D01*
D20*
X0163283Y0038047D03*
X0142811Y0038205D03*
X0112063Y0038362D03*
X0081039Y0039780D03*
X0049071Y0038047D03*
X0044228Y0123165D03*
X0086630Y0123165D03*
X0083559Y0165882D03*
X0060291Y0182024D03*
X0136827Y0181000D03*
X0156984Y0160055D03*
X0156354Y0139386D03*
X0178244Y0116866D03*
X0181787Y0151787D03*
X0181512Y0159307D03*
M02*
